<svg width="54" height="54" viewBox="0 0 54 54" fill="none" xmlns="http://www.w3.org/2000/svg">
<circle cx="27" cy="27" r="27" fill="#375FE0"/>
<path d="M38.25 32.525V36.945C38.2501 37.2615 38.1302 37.5662 37.9145 37.7977C37.6987 38.0293 37.4032 38.1703 37.0875 38.1925C36.5413 38.23 36.095 38.25 35.75 38.25C24.7038 38.25 15.75 29.2963 15.75 18.25C15.75 17.905 15.7688 17.4588 15.8075 16.9125C15.8297 16.5968 15.9707 16.3013 16.2023 16.0855C16.4338 15.8698 16.7385 15.7499 17.055 15.75H21.475C21.63 15.7498 21.7796 15.8073 21.8947 15.9113C22.0097 16.0152 22.082 16.1582 22.0975 16.3125C22.1263 16.6 22.1525 16.8288 22.1775 17.0025C22.4259 18.7362 22.935 20.4223 23.6875 22.0038C23.8063 22.2538 23.7288 22.5525 23.5037 22.7125L20.8063 24.64C22.4556 28.4831 25.5182 31.5457 29.3612 33.195L31.2863 30.5025C31.3649 30.3925 31.4797 30.3136 31.6106 30.2796C31.7415 30.2455 31.8802 30.2585 32.0025 30.3162C33.5838 31.0673 35.2695 31.5751 37.0025 31.8225C37.1763 31.8475 37.405 31.875 37.69 31.9025C37.844 31.9183 37.9867 31.9907 38.0904 32.1057C38.1941 32.2207 38.2514 32.3701 38.2512 32.525H38.25Z" fill="white"/>
</svg>
