<svg width="19" height="21" viewBox="0 0 19 21" fill="none" xmlns="http://www.w3.org/2000/svg">
<path d="M17.9444 6.31757L11.6111 0.80117C11.0306 0.285235 10.279 0 9.50003 0C8.72111 0 7.96951 0.285235 7.38894 0.80117L1.05565 6.31757C0.720373 6.61549 0.452825 6.98096 0.270818 7.38964C0.0888123 7.79833 -0.00347545 8.24084 0.00010006 8.68773V17.8538C0.00010006 18.6882 0.333728 19.4885 0.927589 20.0785C1.52145 20.6685 2.3269 21 3.16674 21H15.8333C16.6732 21 17.4786 20.6685 18.0725 20.0785C18.6663 19.4885 19 18.6882 19 17.8538V8.67725C19.002 8.23212 18.909 7.79162 18.7271 7.38486C18.5451 6.97809 18.2784 6.61432 17.9444 6.31757ZM11.6111 18.9025H7.38894V13.6588C7.38894 13.3806 7.50015 13.1139 7.6981 12.9172C7.89605 12.7205 8.16453 12.61 8.44448 12.61H10.5556C10.8355 12.61 11.104 12.7205 11.302 12.9172C11.4999 13.1139 11.6111 13.3806 11.6111 13.6588V18.9025ZM16.8889 17.8538C16.8889 18.1319 16.7777 18.3987 16.5797 18.5953C16.3818 18.792 16.1133 18.9025 15.8333 18.9025H13.7222V13.6588C13.7222 12.8244 13.3886 12.0241 12.7947 11.4341C12.2009 10.844 11.3954 10.5125 10.5556 10.5125H8.44448C7.60464 10.5125 6.79919 10.844 6.20533 11.4341C5.61147 12.0241 5.27784 12.8244 5.27784 13.6588V18.9025H3.16674C2.8868 18.9025 2.61831 18.792 2.42036 18.5953C2.22241 18.3987 2.1112 18.1319 2.1112 17.8538V8.67725C2.11139 8.52834 2.14349 8.38118 2.20537 8.24556C2.26725 8.10994 2.35749 7.98897 2.47008 7.89069L8.80337 2.38478C8.996 2.21664 9.24363 2.12392 9.50003 2.12392C9.75643 2.12392 10.0041 2.21664 10.1967 2.38478L16.53 7.89069C16.6426 7.98897 16.7328 8.10994 16.7947 8.24556C16.8566 8.38118 16.8887 8.52834 16.8889 8.67725V17.8538Z" fill="#375FE0"/>
</svg>
