<svg width="18" height="21" viewBox="0 0 18 21" fill="none" xmlns="http://www.w3.org/2000/svg">
<path d="M17 18.9H9H1C0.734784 18.9 0.48043 19.0106 0.292893 19.2075C0.105357 19.4044 0 19.6715 0 19.95C0 20.2285 0.105357 20.4956 0.292893 20.6925C0.48043 20.8894 0.734784 21 1 21H17C17.2652 21 17.5196 20.8894 17.7071 20.6925C17.8946 20.4956 18 20.2285 18 19.95C18 19.6715 17.8946 19.4044 17.7071 19.2075C17.5196 19.0106 17.2652 18.9 17 18.9Z" fill="black" fill-opacity="0.4"/>
<path d="M15 0H3C2.20435 0 1.44129 0.331874 0.87868 0.922614C0.316071 1.51335 0 2.31457 0 3.15V13.65C0 14.4854 0.316071 15.2866 0.87868 15.8774C1.44129 16.4681 2.20435 16.8 3 16.8H15C15.7956 16.8 16.5587 16.4681 17.1213 15.8774C17.6839 15.2866 18 14.4854 18 13.65V3.15C18 2.31457 17.6839 1.51335 17.1213 0.922614C16.5587 0.331874 15.7956 0 15 0ZM16 13.65C16 13.9285 15.8946 14.1955 15.7071 14.3925C15.5196 14.5894 15.2652 14.7 15 14.7H3C2.73478 14.7 2.48043 14.5894 2.29289 14.3925C2.10536 14.1955 2 13.9285 2 13.65V3.15C2 2.87152 2.10536 2.60445 2.29289 2.40754C2.48043 2.21062 2.73478 2.1 3 2.1H15C15.2652 2.1 15.5196 2.21062 15.7071 2.40754C15.8946 2.60445 16 2.87152 16 3.15V13.65Z" fill="black" fill-opacity="0.4"/>
<path fill-rule="evenodd" clip-rule="evenodd" d="M6.5073 4.33629C6.82081 4.14991 7.20556 4.15501 7.5145 4.34963L12.5145 7.49963C12.8157 7.68939 13 8.03117 13 8.4C13 8.76883 12.8157 9.11061 12.5145 9.30037L7.5145 12.4504C7.20556 12.645 6.82081 12.6501 6.5073 12.4637C6.19379 12.2773 6 11.9283 6 11.55V5.25C6 4.87171 6.19379 4.52267 6.5073 4.33629ZM8 7.1045V9.6955L10.0563 8.4L8 7.1045Z" fill="black" fill-opacity="0.4"/>
</svg>
