<svg width="20" height="21" viewBox="0 0 20 21" fill="none" xmlns="http://www.w3.org/2000/svg">
<path fill-rule="evenodd" clip-rule="evenodd" d="M17.7188 3.9375C17.7188 5.02481 16.8373 5.90625 15.75 5.90625C14.6627 5.90625 13.7812 5.02481 13.7812 3.9375C13.7812 2.85019 14.6627 1.96875 15.75 1.96875C16.8373 1.96875 17.7188 2.85019 17.7188 3.9375ZM19.6875 3.9375C19.6875 6.11212 17.9247 7.875 15.75 7.875C14.6264 7.875 13.6127 7.40438 12.8953 6.64949L7.7491 9.5085C7.83128 9.82527 7.875 10.1575 7.875 10.5C7.875 10.8425 7.83127 11.1748 7.74909 11.4916L12.8953 14.3506C13.6127 13.5957 14.6264 13.125 15.75 13.125C17.9247 13.125 19.6875 14.8878 19.6875 17.0625C19.6875 19.2372 17.9247 21 15.75 21C13.5753 21 11.8125 19.2372 11.8125 17.0625C11.8125 16.7201 11.8562 16.3879 11.9384 16.071L6.7921 13.212C6.07472 13.9668 5.06107 14.4375 3.9375 14.4375C1.76288 14.4375 0 12.6746 0 10.5C0 8.32538 1.76288 6.5625 3.9375 6.5625C5.06109 6.5625 6.07475 7.03312 6.79214 7.78798L11.9384 4.92896C11.8562 4.6122 11.8125 4.27996 11.8125 3.9375C11.8125 1.76288 13.5753 0 15.75 0C17.9247 0 19.6875 1.76288 19.6875 3.9375ZM17.7188 17.0625C17.7188 18.1498 16.8373 19.0312 15.75 19.0312C14.6627 19.0312 13.7812 18.1498 13.7812 17.0625C13.7812 15.9752 14.6627 15.0938 15.75 15.0938C16.8373 15.0938 17.7188 15.9752 17.7188 17.0625ZM5.90625 10.5C5.90625 11.5873 5.02481 12.4688 3.9375 12.4688C2.85019 12.4688 1.96875 11.5873 1.96875 10.5C1.96875 9.41269 2.85019 8.53125 3.9375 8.53125C5.02481 8.53125 5.90625 9.41269 5.90625 10.5Z" fill="black" fill-opacity="0.4"/>
</svg>
