<svg width="107" height="26" viewBox="0 0 107 26" fill="none" xmlns="http://www.w3.org/2000/svg">
<path d="M16.5278 7.35024V0H13.8293V20.0452H16.5278V9.76864H19.6795V7.35024H16.5278Z" fill="#375FE0"/>
<path d="M0 15.7295H10.861V1.63852H0V15.7295ZM8.1124 3.96189V13.4061H2.80186V3.96189H8.1124Z" fill="#375FE0"/>
<path d="M61.7407 0.0262451H58.9888V13.4061H61.7407V0.0262451Z" fill="#375FE0"/>
<path d="M55.6243 10.2831H46.9821V8.04164H55.6243V5.62651H46.9821V3.44077H55.6243V0.96994H44.1736V12.6982H55.6243V10.2831Z" fill="#375FE0"/>
<path d="M79.9212 0.0262451V13.452L64.3628 14.9528V17.4532L79.9212 15.9523V20.0452H82.8064V0.0262451H79.9212Z" fill="#375FE0"/>
<path d="M51.0666 24.4331C51.6378 24.9432 52.3058 25.3375 53.0322 25.5931C53.8225 25.869 54.6558 26.0065 55.4943 25.9994C56.3582 26.0103 57.2167 25.8636 58.0263 25.5669C58.7573 25.2972 59.4266 24.8873 59.9952 24.361C60.5493 23.8601 60.9888 23.2491 61.2846 22.5685C61.5941 21.8505 61.7494 21.0773 61.741 20.2975C61.713 19.4758 61.5393 18.6651 61.2279 17.9021C60.9368 17.2076 60.4957 16.5837 59.9353 16.0735C59.3702 15.5635 58.7061 15.1712 57.983 14.92C57.1791 14.6491 56.3339 14.5161 55.4843 14.5268C54.6213 14.517 53.7636 14.6602 52.9523 14.9495C52.2216 15.2088 51.5503 15.6075 50.9766 16.1227C50.4252 16.6371 49.9884 17.2587 49.694 17.9479C49.385 18.6662 49.2285 19.439 49.2342 20.2189C49.2279 21.0413 49.3958 21.856 49.7273 22.6111C50.0363 23.3055 50.493 23.9268 51.0666 24.4331ZM55.4643 17.1254C55.9769 17.1309 56.4841 17.2298 56.9602 17.4171C57.3586 17.5764 57.7227 17.8089 58.0329 18.102C58.314 18.4031 58.5395 18.7502 58.6992 19.1276C58.8558 19.5212 58.9349 19.9404 58.9325 20.3631C58.9348 20.7995 58.8558 21.2327 58.6992 21.6411C58.5445 22.0312 58.3092 22.3856 58.0081 22.6817C57.7071 22.9778 57.3468 23.2093 56.9502 23.3615C56.491 23.5391 56.001 23.6271 55.5076 23.6204C54.9968 23.6319 54.4892 23.537 54.0184 23.3418C53.607 23.1728 53.2343 22.9243 52.9223 22.6111C52.6371 22.3205 52.419 21.9729 52.2826 21.5919C52.1394 21.1966 52.0684 20.7795 52.0727 20.3598C52.0686 19.928 52.1454 19.4992 52.2993 19.0949C52.4555 18.7094 52.6914 18.3601 52.9922 18.0692C53.3011 17.7751 53.664 17.5415 54.0617 17.381C54.5082 17.2081 54.9844 17.1213 55.4643 17.1254Z" fill="#375FE0"/>
<path d="M93.164 24.4331C93.7362 24.9419 94.4039 25.336 95.1296 25.5932C95.921 25.869 96.7554 26.0066 97.595 25.9995C98.4589 26.0099 99.3173 25.8633 100.127 25.5669C100.858 25.2972 101.527 24.8873 102.096 24.361C102.649 23.8593 103.088 23.2485 103.385 22.5685C103.695 21.8505 103.85 21.0774 103.842 20.2976C103.817 19.476 103.646 18.6651 103.335 17.9021C103.047 17.2072 102.606 16.5831 102.046 16.0736C101.48 15.5642 100.816 15.172 100.094 14.9201C99.2897 14.6495 98.4446 14.5165 97.595 14.5268C96.732 14.5171 95.8743 14.6603 95.063 14.9496C94.3323 15.2089 93.661 15.6076 93.0873 16.1227C92.5359 16.6379 92.0982 17.2592 91.8013 17.948C91.4935 18.6665 91.3382 19.4393 91.3449 20.2189C91.3338 21.0408 91.4984 21.8558 91.828 22.6111C92.1357 23.3054 92.5913 23.9267 93.164 24.4331ZM97.5617 17.1255C98.0754 17.1309 98.5837 17.2298 99.0609 17.4171C99.4593 17.5765 99.8234 17.8089 100.134 18.102C100.415 18.4032 100.64 18.7503 100.8 19.1277C100.955 19.5215 101.033 19.9407 101.03 20.3631C101.033 20.7994 100.955 21.2325 100.8 21.6411C100.651 22.0222 100.424 22.3691 100.134 22.6603C99.8292 22.9661 99.4625 23.205 99.0575 23.3615C98.5983 23.5392 98.1083 23.6271 97.615 23.6204C97.1041 23.632 96.5966 23.537 96.1257 23.3419C95.7111 23.1735 95.335 22.925 95.0197 22.6111C94.7344 22.3212 94.5172 21.9733 94.3833 21.592C94.2401 21.1966 94.1691 20.7795 94.1734 20.3598C94.1677 19.928 94.2445 19.4989 94.4 19.0949C94.5562 18.7095 94.7921 18.3602 95.0929 18.0692C95.4 17.7745 95.762 17.5408 96.1591 17.3811C96.6057 17.2085 97.0818 17.1217 97.5617 17.1255Z" fill="#375FE0"/>
<path d="M67.4311 10.3617C67.9706 10.8493 68.6038 11.2259 69.2935 11.4693C70.042 11.731 70.8312 11.8619 71.6256 11.856C72.4439 11.8655 73.2571 11.7267 74.0243 11.4464C74.7184 11.1896 75.3537 10.7998 75.8933 10.2994C76.4176 9.82511 76.8333 9.24647 77.1127 8.60197C77.409 7.92214 77.5566 7.1886 77.5458 6.44901C77.5244 5.67032 77.3631 4.9015 77.0694 4.17807C76.7936 3.51851 76.3753 2.92587 75.8434 2.44128C75.3075 1.95947 74.6787 1.5884 73.9943 1.35005C73.234 1.09603 72.4351 0.971901 71.6322 0.983026C70.8123 0.968907 69.9964 1.09988 69.2235 1.36971C68.5305 1.61536 67.894 1.99409 67.3512 2.48388C66.8275 2.97154 66.4123 3.56068 66.1318 4.21412C65.8399 4.89529 65.6926 5.62791 65.6987 6.36708C65.6884 7.14495 65.8439 7.9163 66.1551 8.63147C66.4484 9.29209 66.8837 9.88237 67.4311 10.3617ZM71.6023 3.4342C72.0884 3.4403 72.5694 3.53358 73.0215 3.70946C73.3923 3.86656 73.7309 4.08863 74.021 4.36486C74.2841 4.6546 74.4938 4.98729 74.6407 5.34795C74.7873 5.72218 74.8619 6.12002 74.8605 6.5211C74.8622 6.935 74.7877 7.34577 74.6407 7.73358C74.4978 8.09416 74.2812 8.42207 74.0043 8.69701C73.7137 8.98341 73.3653 9.20668 72.9815 9.3524C72.5464 9.51927 72.0825 9.60161 71.6156 9.5949C71.1313 9.60512 70.6502 9.51583 70.203 9.33274C69.8171 9.17075 69.4674 8.93583 69.1735 8.6413C68.9025 8.36613 68.6956 8.03627 68.5672 7.67459C68.4335 7.29985 68.367 6.90512 68.3706 6.50799C68.3656 6.09867 68.4379 5.69198 68.5838 5.30862C68.7338 4.9388 68.9608 4.60393 69.2502 4.32553C69.5393 4.04821 69.8782 3.82599 70.2496 3.67014C70.6803 3.50475 71.14 3.42457 71.6023 3.4342Z" fill="#375FE0"/>
<path d="M103.816 6.43596V0.0262073H100.984V10.5944L94.4771 11.2269V9.89643C94.7437 9.83978 95.0054 9.76309 95.26 9.66705C95.899 9.43178 96.4835 9.073 96.9791 8.61186C97.4628 8.1751 97.8466 7.64232 98.1052 7.04875C98.3749 6.42174 98.511 5.74698 98.505 5.06618C98.4838 4.34904 98.3337 3.64124 98.0619 2.97548C97.8089 2.36839 97.4247 1.82271 96.9358 1.37632C96.4432 0.93219 95.864 0.591051 95.2334 0.373566C94.5316 0.135632 93.7935 0.0181342 93.0512 0.0262073C92.2972 0.0182911 91.5479 0.143717 90.839 0.396505C90.2014 0.622593 89.6159 0.971264 89.1166 1.4222C88.6347 1.87119 88.2524 2.41343 87.9939 3.0148C87.7251 3.64211 87.5891 4.31667 87.5941 4.99737C87.5848 5.7136 87.729 6.42372 88.0172 7.08152C88.2855 7.68932 88.6831 8.2335 89.1832 8.6774C89.6827 9.12159 90.2655 9.46556 90.899 9.68999C91.1351 9.77339 91.3767 9.84126 91.622 9.89316V11.5054L85.735 12.0789V14.5465L100.987 13.062V14.2548H103.819V8.90351H106.537V6.43596H103.816ZM90.4426 6.10826C90.3279 5.79286 90.2704 5.46012 90.2727 5.12517C90.2699 4.7741 90.332 4.42545 90.4559 4.0962C90.5839 3.78771 90.7756 3.50874 91.0189 3.27696C91.2686 3.03829 91.5627 2.84915 91.8851 2.71987C92.247 2.57633 92.6344 2.50504 93.0246 2.51015C93.4409 2.5145 93.8529 2.59334 94.2406 2.74281C94.5641 2.87375 94.8601 3.06265 95.1134 3.2999C95.3359 3.54577 95.514 3.82728 95.6398 4.13225C95.768 4.45255 95.8324 4.79407 95.8297 5.13828C95.8327 5.49208 95.7683 5.84331 95.6398 6.1738C95.5189 6.48309 95.334 6.7643 95.0968 6.99959C94.8453 7.24629 94.5432 7.43733 94.2106 7.55996C93.8381 7.70257 93.4409 7.77268 93.0412 7.76641C92.6268 7.77516 92.215 7.69928 91.8318 7.54357C91.5024 7.40379 91.2036 7.20235 90.9523 6.95044C90.7237 6.71343 90.5498 6.43062 90.4426 6.12137V6.10826Z" fill="#375FE0"/>
<path d="M33.9517 0.0393372V7.33714H30.1604L31.9361 1.62211H31.6463H29.1043H21.6116V4.12244H28.328L27.3286 7.33714H21.6116V9.80798H26.5623L24.5 16.4406H27.3352L29.3941 9.80798H33.9517V20.0059H36.7536V0.0393372H33.9517Z" fill="#375FE0"/>
<path d="M41.1185 0H38.3133V20.0452H41.1185V0Z" fill="#375FE0"/>
</svg>
