<svg width="128" height="19" viewBox="0 0 128 19" fill="none" xmlns="http://www.w3.org/2000/svg">
<g clip-path="url(#clip0_889:5902)">
<path d="M63.7248 0.25061H57.0005V15.5883H58.1871V10.2862H63.7317C70.3868 10.2862 70.3868 0.25061 63.7248 0.25061ZM63.7248 9.21257H58.1802V1.34602H63.7248C68.8313 1.34602 68.8313 9.21257 63.7248 9.21257Z" fill="white"/>
<path d="M102.733 12.9368L92.4098 0.25061H91.9054V13.4884L85.9663 0.25061H84.6729L78.2927 14.4711H70.3204V0.25061H69.1338V15.5883H79.062L80.7283 11.8176H89.8881L91.5752 15.5863H93.0881V2.91992L103.436 15.5883H103.895V0.25061H102.735L102.733 12.9368ZM81.1861 10.7242L85.3067 1.38952L89.4273 10.7242H81.1861Z" fill="white"/>
<path d="M105.119 0.25061V15.5883H115.968V14.4494H106.28V8.40189H115.266V7.32824H106.28V1.36777H121.271L121.265 15.5883H122.449L122.455 1.36777H128V1.32427V0.27236V0.25061H105.119Z" fill="white"/>
<path d="M0 2.98598H5.70972V18.4986L8.60315 15.6108V2.99092H13.4615V0.285034H2.70159L0 2.98598Z" fill="white"/>
<path d="M14.4058 3.84926V15.614H25.8766V12.9051H17.2735V9.3085H25.8766V6.60261H17.2735V2.98915H25.8766V0.283264H17.9756L14.4058 3.84926Z" fill="white"/>
<path d="M45.6527 0.288158L39.3813 14.2664L35.766 10.1923C38.6812 9.59911 39.6464 7.47552 39.6464 5.37171C39.6464 2.72217 37.7388 0.309908 34.1226 0.288158C32.8805 0.288158 31.6375 0.282226 30.3955 0.277283L26.8247 3.84724V15.612H29.7171V10.4988H32.5008L36.9725 15.6268H41.9049L43.2201 12.7341H51.2418L52.5343 15.6268H55.6907L48.8092 0.288158H45.6527ZM29.7171 7.89174V2.98317H34.1226C35.9421 2.98317 36.7529 4.21007 36.7529 5.43795C36.7529 6.66583 35.9618 7.89174 34.1226 7.89174H29.7171ZM44.3811 10.0381L47.231 3.51308L50.0799 10.0381H44.3811Z" fill="white"/>
</g>
<defs>
<clipPath id="clip0_889:5902">
<rect width="128" height="18.2462" fill="white" transform="translate(0 0.25061)"/>
</clipPath>
</defs>
</svg>
